<svg style="height: 128px; width: 128px;" xmlns="http://www.w3.org/2000/svg" viewBox="0 0 512 512"><rect fill="#87C2C8" fill-opacity="1" height="512" width="512" rx="132" ry="132"></rect><g class="" style="" transform="translate(0,0)"><path d="M342.5 47.1c9.9 0 19.4 4 26.4 11s10.9 16.5 10.9 26.4v104.7H132.2V84.5c0-9.9 3.9-19.4 10.9-26.4s16.5-11 26.4-11zM168.8 98.7h-11l-2 72.9h15zm211 107.2V460c0 12-9.7 22-21.7 22H153.9c-12 0-21.7-10-21.7-22V205.9zm-209 17.7h-15l2 143h11z" fill="#ffffff" fill-opacity="1"></path></g><g font-family="Arial, Helvetica, sans-serif" font-size="400" font-style="normal" font-weight="normal" text-anchor="middle" text-decoration=" rgba(255, 255, 255, 1)" class="" style="" transform="translate(256,300)"><g transform="translate(0, 0) scale(0.8, 0.8) rotate(0, 0, 0) skewX(0) skewY(0)"><text stroke="rgba(0, 0, 0, 1)" stroke-width="100"><tspan x="0" y="0">!</tspan></text><text fill="rgba(255, 255, 255, 1)"><tspan x="0" y="0">!</tspan></text></g></g></svg>