# Blender v2.79 (sub 0) OBJ File: ''
# www.blender.org
mtllib Water.mtl
o Plane
v -0.031227 0.084755 0.404894
v 0.000001 0.084755 -0.561987
v 0.000001 -0.084755 -0.561987
v -0.031227 -0.084755 0.404894
v -0.309118 -0.084755 -0.044743
v -0.085923 -0.084755 0.397715
v -0.134222 -0.084755 0.382365
v -0.177339 -0.084755 0.361075
v -0.215284 -0.084755 0.335007
v -0.248280 -0.084755 0.304760
v -0.276203 -0.084755 0.270959
v -0.299067 -0.084755 0.233912
v -0.316728 -0.084755 0.193892
v -0.328996 -0.084755 0.150785
v -0.335292 -0.084755 0.105199
v -0.335006 -0.084755 0.057171
v -0.327025 -0.084755 0.006836
v 0.309119 -0.084755 -0.044743
v 0.031228 -0.084755 0.404894
v 0.327159 -0.084755 0.007389
v 0.335029 -0.084755 0.057454
v 0.335270 -0.084755 0.105540
v 0.328922 -0.084755 0.151137
v 0.316625 -0.084755 0.194177
v 0.298881 -0.084755 0.234268
v 0.275970 -0.084755 0.271286
v 0.248072 -0.084755 0.304980
v 0.215003 -0.084755 0.335231
v 0.177045 -0.084755 0.361249
v 0.133960 -0.084755 0.382472
v 0.085370 -0.084755 0.397844
v -0.309118 0.084755 -0.044743
v -0.085923 0.084755 0.397715
v -0.134222 0.084755 0.382365
v -0.177339 0.084755 0.361075
v -0.215284 0.084755 0.335007
v -0.248280 0.084755 0.304760
v -0.276203 0.084755 0.270959
v -0.299067 0.084755 0.233912
v -0.316728 0.084755 0.193892
v -0.328996 0.084755 0.150785
v -0.335292 0.084755 0.105199
v -0.335006 0.084755 0.057171
v -0.327025 0.084755 0.006836
v 0.309119 0.084755 -0.044743
v 0.031228 0.084755 0.404894
v 0.327159 0.084755 0.007389
v 0.335029 0.084755 0.057454
v 0.335270 0.084755 0.105540
v 0.328922 0.084755 0.151137
v 0.316625 0.084755 0.194177
v 0.298881 0.084755 0.234268
v 0.275970 0.084755 0.271286
v 0.248072 0.084755 0.304980
v 0.215003 0.084755 0.335231
v 0.177045 0.084755 0.361249
v 0.133960 0.084755 0.382472
v 0.085370 0.084755 0.397844
vt 0.080479 0.416511
vt 0.020931 0.336203
vt 0.023520 0.126748
vt 0.515757 0.589331
vt 0.796877 0.419768
vt 0.764136 0.518979
vt 1.000000 0.403434
vt 0.898439 0.000000
vt 1.000000 0.000000
vt 0.898439 0.206978
vt 0.796877 0.168657
vt 0.898439 0.168657
vt 0.101561 0.829550
vt 0.000000 0.786043
vt 0.101561 0.786043
vt 1.000000 0.441361
vt 0.898439 0.403434
vt 0.898439 0.610316
vt 0.796877 0.206978
vt 0.101561 0.867264
vt 0.000000 0.829550
vt 1.000000 0.476681
vt 0.898439 0.441361
vt 0.101561 0.901108
vt 0.000000 0.867264
vt 1.000000 0.509076
vt 0.898439 0.476681
vt 0.101561 0.931116
vt 0.000000 0.901108
vt 1.000000 0.538652
vt 0.898439 0.509076
vt 0.101561 0.957550
vt 0.000000 0.931116
vt 1.000000 0.565494
vt 0.898439 0.538652
vt 0.101561 0.980577
vt 0.000000 0.957550
vt 1.000000 0.589296
vt 0.898439 0.565494
vt 0.101561 1.000000
vt 0.000000 0.980577
vt 1.000000 0.610169
vt 0.898439 0.589296
vt 0.898439 0.020863
vt 0.796877 0.000000
vt 0.898439 0.000000
vt 0.101561 0.634805
vt 0.000000 0.615343
vt 0.101561 0.615343
vt 0.898439 0.044713
vt 0.796877 0.020863
vt 0.101561 0.657801
vt 0.000000 0.634805
vt 0.898439 0.071519
vt 0.796877 0.044713
vt 0.101561 0.684243
vt 0.000000 0.657801
vt 0.898439 0.101104
vt 0.796877 0.071519
vt 0.101561 0.714286
vt 0.000000 0.684243
vt 0.898439 0.133535
vt 0.796877 0.101104
vt 0.101561 0.747937
vt 0.000000 0.714286
vt 0.796877 0.133535
vt 0.000000 0.747938
vt 0.398439 0.615343
vt 0.398439 0.195575
vt 0.055416 0.392068
vt 0.035840 0.364821
vt 0.085198 0.048330
vt 0.010158 0.306694
vt 0.012018 0.155897
vt 0.003218 0.276533
vt 0.000000 0.246291
vt 0.000372 0.215966
vt 0.004344 0.185776
vt 0.039152 0.098609
vt 0.059274 0.072170
vt 0.117318 0.026011
vt 0.147331 0.010879
vt 0.177045 0.002707
vt 0.205727 0.000000
vt 0.233246 0.001993
vt 0.348418 0.071366
vt 0.259552 0.008265
vt 0.284255 0.018443
vt 0.307416 0.032392
vt 0.328865 0.050024
vt 0.365697 0.096364
vt 0.380353 0.125204
vt 0.391694 0.157954
vt 0.453854 0.223275
vt 0.478917 0.198831
vt 0.434279 0.250522
vt 0.796877 0.000000
vt 0.790132 0.457389
vt 0.778792 0.490139
vt 0.746857 0.543977
vt 0.631685 0.613349
vt 0.727304 0.565319
vt 0.705855 0.582951
vt 0.682694 0.596899
vt 0.657990 0.607078
vt 0.604166 0.615343
vt 0.575484 0.612636
vt 0.545769 0.604464
vt 0.483637 0.567012
vt 0.457712 0.543173
vt 0.437590 0.516733
vt 0.419370 0.279139
vt 0.421959 0.488594
vt 0.408596 0.308649
vt 0.410456 0.459445
vt 0.402783 0.429567
vt 0.398811 0.399376
vt 0.398439 0.369052
vt 0.401657 0.338810
vt 0.796877 0.610316
vt 0.000000 1.000000
vt 0.898439 0.610169
vn 0.0000 1.0000 0.0000
vn 0.0000 -1.0000 0.0000
vn -0.8584 0.0000 -0.5130
vn 0.9450 0.0000 -0.3270
vn 0.0000 0.0000 1.0000
vn -0.9447 0.0000 -0.3280
vn 0.8584 0.0000 -0.5130
vn 0.1291 0.0000 0.9916
vn -0.9877 0.0000 -0.1566
vn 0.3016 0.0000 0.9534
vn -1.0000 0.0000 -0.0060
vn 0.4419 0.0000 0.8971
vn -0.9906 0.0000 0.1368
vn 0.5654 0.0000 0.8248
vn -0.9618 0.0000 0.2737
vn 0.6750 0.0000 0.7378
vn -0.9149 0.0000 0.4037
vn 0.7702 0.0000 0.6377
vn -0.8510 0.0000 0.5252
vn 0.8503 0.0000 0.5263
vn -0.7710 0.0000 0.6369
vn 0.9144 0.0000 0.4047
vn -0.6757 0.0000 0.7372
vn 0.9615 0.0000 0.2747
vn -0.5663 0.0000 0.8242
vn 0.9904 0.0000 0.1379
vn -0.4427 0.0000 0.8967
vn 1.0000 0.0000 -0.0050
vn -0.3029 0.0000 0.9530
vn 0.9879 0.0000 -0.1553
vn -0.1301 0.0000 0.9915
usemtl None
s off
f 32/1/1 42/2/1 35/3/1
f 19/4/2 18/5/2 22/6/2
f 5/7/3 2/8/3 3/9/3
f 18/10/4 47/11/4 20/12/4
f 19/13/5 1/14/5 4/15/5
f 17/16/6 32/17/6 5/7/6
f 3/18/7 45/19/7 18/10/7
f 31/20/8 46/21/8 19/13/8
f 16/22/9 44/23/9 17/16/9
f 30/24/10 58/25/10 31/20/10
f 15/26/11 43/27/11 16/22/11
f 29/28/12 57/29/12 30/24/12
f 14/30/13 42/31/13 15/26/13
f 28/32/14 56/33/14 29/28/14
f 13/34/15 41/35/15 14/30/15
f 27/36/16 55/37/16 28/32/16
f 12/38/17 40/39/17 13/34/17
f 26/40/18 54/41/18 27/36/18
f 11/42/19 39/43/19 12/38/19
f 25/44/20 53/45/20 26/46/20
f 10/47/21 38/48/21 11/49/21
f 24/50/22 52/51/22 25/44/22
f 9/52/23 37/53/23 10/47/23
f 23/54/24 51/55/24 24/50/24
f 8/56/25 36/57/25 9/52/25
f 22/58/26 50/59/26 23/54/26
f 7/60/27 35/61/27 8/56/27
f 21/62/28 49/63/28 22/58/28
f 6/64/29 34/65/29 7/60/29
f 20/12/30 48/66/30 21/62/30
f 4/15/31 33/67/31 6/64/31
f 2/68/1 32/1/1 45/69/1
f 32/1/1 44/70/1 43/71/1
f 45/69/1 32/1/1 1/72/1
f 43/71/1 42/2/1 32/1/1
f 42/2/1 41/73/1 36/74/1
f 41/73/1 40/75/1 36/74/1
f 40/75/1 39/76/1 38/77/1
f 38/77/1 37/78/1 40/75/1
f 37/78/1 36/74/1 40/75/1
f 36/74/1 35/3/1 42/2/1
f 35/3/1 34/79/1 1/72/1
f 34/79/1 33/80/1 1/72/1
f 1/72/1 46/81/1 45/69/1
f 46/81/1 58/82/1 57/83/1
f 56/84/1 46/81/1 57/83/1
f 56/84/1 55/85/1 50/86/1
f 55/85/1 54/87/1 50/86/1
f 54/87/1 53/88/1 52/89/1
f 52/89/1 51/90/1 54/87/1
f 51/90/1 50/86/1 54/87/1
f 50/86/1 49/91/1 56/84/1
f 49/91/1 48/92/1 45/69/1
f 56/84/1 49/91/1 45/69/1
f 48/92/1 47/93/1 45/69/1
f 1/72/1 32/1/1 35/3/1
f 46/81/1 56/84/1 45/69/1
f 17/94/2 5/95/2 16/96/2
f 5/95/2 3/97/2 18/5/2
f 18/5/2 20/98/2 21/99/2
f 21/99/2 22/6/2 18/5/2
f 22/6/2 23/100/2 28/101/2
f 23/100/2 24/102/2 28/101/2
f 24/102/2 25/103/2 26/104/2
f 26/104/2 27/105/2 24/102/2
f 27/105/2 28/101/2 24/102/2
f 28/101/2 29/106/2 22/6/2
f 29/106/2 30/107/2 19/4/2
f 30/107/2 31/108/2 19/4/2
f 19/4/2 4/109/2 5/95/2
f 4/109/2 6/110/2 7/111/2
f 15/112/2 8/113/2 14/114/2
f 7/111/2 8/113/2 4/109/2
f 8/113/2 9/115/2 14/114/2
f 9/115/2 10/116/2 14/114/2
f 10/116/2 11/117/2 12/118/2
f 12/118/2 13/119/2 10/116/2
f 13/119/2 14/114/2 10/116/2
f 15/112/2 16/96/2 5/95/2
f 5/95/2 18/5/2 19/4/2
f 5/95/2 4/109/2 15/112/2
f 29/106/2 19/4/2 22/6/2
f 8/113/2 15/112/2 4/109/2
f 5/7/3 32/17/3 2/8/3
f 18/10/4 45/19/4 47/11/4
f 19/13/5 46/21/5 1/14/5
f 17/16/6 44/23/6 32/17/6
f 3/18/7 2/120/7 45/19/7
f 31/20/8 58/25/8 46/21/8
f 16/22/9 43/27/9 44/23/9
f 30/24/10 57/29/10 58/25/10
f 15/26/11 42/31/11 43/27/11
f 29/28/12 56/33/12 57/29/12
f 14/30/13 41/35/13 42/31/13
f 28/32/14 55/37/14 56/33/14
f 13/34/15 40/39/15 41/35/15
f 27/36/16 54/41/16 55/37/16
f 12/38/17 39/43/17 40/39/17
f 26/40/18 53/121/18 54/41/18
f 11/42/19 38/122/19 39/43/19
f 25/44/20 52/51/20 53/45/20
f 10/47/21 37/53/21 38/48/21
f 24/50/22 51/55/22 52/51/22
f 9/52/23 36/57/23 37/53/23
f 23/54/24 50/59/24 51/55/24
f 8/56/25 35/61/25 36/57/25
f 22/58/26 49/63/26 50/59/26
f 7/60/27 34/65/27 35/61/27
f 21/62/28 48/66/28 49/63/28
f 6/64/29 33/67/29 34/65/29
f 20/12/30 47/11/30 48/66/30
f 4/15/31 1/14/31 33/67/31
